M48
;Layer_Color=9474304
;FILE_FORMAT=4:4
METRIC,LZ
;TYPE=PLATED
T1F00S00C0.7000
T2F00S00C0.9000
T3F00S00C1.0000
T4F00S00C1.0160
%
T01
X0070104Y0079629
Y0082169
Y0084709
X0077851
Y0082169
Y0079629
X0119634Y0080264
Y0082804
Y0085344
T02
X0084201Y0058801
Y0061301
Y0063801
Y0066301
X0104982Y0052451
X0107482
X0109982
X0112482
X0118872Y0057651
Y0060151
Y0062651
Y0065151
X0077851Y0065906
Y0063406
Y0060906
Y0068406
Y0070906
Y0073406
X0070104Y0073286
Y0070786
Y0068286
Y0065786
T03
X0119761Y0071501
Y0074001
X0098659Y0052595
X0096159
X00958415Y009028
X00983415
X0106573
X0109073
X0088138Y0083693
X0085638
T04
X0121539Y0049276
X0066802
Y0094234
X0121539
M30
