G04*
G04 #@! TF.GenerationSoftware,Altium Limited,Altium Designer,23.1.1 (15)*
G04*
G04 Layer_Physical_Order=1*
G04 Layer_Color=255*
%FSLAX44Y44*%
%MOMM*%
G71*
G04*
G04 #@! TF.SameCoordinates,A958324D-6691-4423-B282-4C8B23E47DD7*
G04*
G04*
G04 #@! TF.FilePolarity,Positive*
G04*
G01*
G75*
%ADD14R,1.0000X3.2000*%
%ADD15R,1.2000X1.4500*%
%ADD16R,1.2000X1.2000*%
%ADD17R,1.2000X1.2000*%
%ADD18R,1.4732X0.5080*%
%ADD19R,0.5080X1.4732*%
%ADD20R,1.4500X1.2000*%
G04:AMPARAMS|DCode=21|XSize=1.8741mm|YSize=0.5434mm|CornerRadius=0.2717mm|HoleSize=0mm|Usage=FLASHONLY|Rotation=270.000|XOffset=0mm|YOffset=0mm|HoleType=Round|Shape=RoundedRectangle|*
%AMROUNDEDRECTD21*
21,1,1.8741,0.0000,0,0,270.0*
21,1,1.3307,0.5434,0,0,270.0*
1,1,0.5434,0.0000,-0.6653*
1,1,0.5434,0.0000,0.6653*
1,1,0.5434,0.0000,0.6653*
1,1,0.5434,0.0000,-0.6653*
%
%ADD21ROUNDEDRECTD21*%
%ADD22R,0.5434X1.8741*%
%ADD27C,1.4000*%
%ADD28R,1.4000X1.4000*%
%ADD29C,1.5500*%
%ADD30R,1.5500X1.5500*%
%ADD31R,1.4000X1.4000*%
%ADD32R,1.5500X1.5500*%
%ADD33C,1.2000*%
%ADD35C,0.2540*%
%ADD36C,1.5240*%
G36*
X1231900Y477520D02*
X650240D01*
Y960120D01*
X1231900D01*
Y477520D01*
D02*
G37*
%LPC*%
G36*
X1216728Y952500D02*
X1214052D01*
X1211468Y951808D01*
X1209152Y950470D01*
X1207260Y948578D01*
X1205922Y946262D01*
X1205230Y943678D01*
Y941002D01*
X1205922Y938418D01*
X1207260Y936102D01*
X1209152Y934210D01*
X1211468Y932872D01*
X1214052Y932180D01*
X1216728D01*
X1219312Y932872D01*
X1221628Y934210D01*
X1223520Y936102D01*
X1224858Y938418D01*
X1225550Y941002D01*
Y943678D01*
X1224858Y946262D01*
X1223520Y948578D01*
X1221628Y950470D01*
X1219312Y951808D01*
X1216728Y952500D01*
D02*
G37*
G36*
X669358D02*
X666682D01*
X664098Y951808D01*
X661782Y950470D01*
X659890Y948578D01*
X658552Y946262D01*
X657860Y943678D01*
Y941002D01*
X658552Y938418D01*
X659890Y936102D01*
X661782Y934210D01*
X664098Y932872D01*
X666682Y932180D01*
X669358D01*
X671942Y932872D01*
X674258Y934210D01*
X676150Y936102D01*
X677488Y938418D01*
X678180Y941002D01*
Y943678D01*
X677488Y946262D01*
X676150Y948578D01*
X674258Y950470D01*
X671942Y951808D01*
X669358Y952500D01*
D02*
G37*
G36*
X1197610Y861941D02*
Y854710D01*
X1204841D01*
X1204298Y856736D01*
X1203174Y858684D01*
X1201584Y860274D01*
X1199636Y861398D01*
X1197610Y861941D01*
D02*
G37*
G36*
X779780Y855591D02*
Y848360D01*
X787011D01*
X786468Y850386D01*
X785344Y852334D01*
X783754Y853924D01*
X781806Y855048D01*
X779780Y855591D01*
D02*
G37*
G36*
X702310D02*
Y848360D01*
X709541D01*
X708998Y850386D01*
X707874Y852334D01*
X706284Y853924D01*
X704336Y855048D01*
X702310Y855591D01*
D02*
G37*
G36*
X777240D02*
X775214Y855048D01*
X773266Y853924D01*
X771676Y852334D01*
X770552Y850386D01*
X770009Y848360D01*
X777240D01*
Y855591D01*
D02*
G37*
G36*
X699770D02*
X697744Y855048D01*
X695796Y853924D01*
X694206Y852334D01*
X693082Y850386D01*
X692539Y848360D01*
X699770D01*
Y855591D01*
D02*
G37*
G36*
X958850Y857881D02*
Y847391D01*
X962940D01*
Y852774D01*
X962532Y854825D01*
X961370Y856564D01*
X959631Y857726D01*
X958850Y857881D01*
D02*
G37*
G36*
X1204841Y852170D02*
X1197610D01*
Y844939D01*
X1199636Y845482D01*
X1201584Y846606D01*
X1203174Y848196D01*
X1204298Y850144D01*
X1204841Y852170D01*
D02*
G37*
G36*
X787011Y845820D02*
X779780D01*
Y838589D01*
X781806Y839132D01*
X783754Y840256D01*
X785344Y841846D01*
X786468Y843794D01*
X787011Y845820D01*
D02*
G37*
G36*
X709541D02*
X702310D01*
Y838589D01*
X704336Y839132D01*
X706284Y840256D01*
X707874Y841846D01*
X708998Y843794D01*
X709541Y845820D01*
D02*
G37*
G36*
X777240D02*
X770009D01*
X770552Y843794D01*
X771676Y841846D01*
X773266Y840256D01*
X775214Y839132D01*
X777240Y838589D01*
Y845820D01*
D02*
G37*
G36*
X699770D02*
X692539D01*
X692906Y844450D01*
X687371Y838915D01*
X686529Y837655D01*
X686233Y836168D01*
Y668782D01*
X686529Y667295D01*
X687371Y666035D01*
X692090Y661317D01*
X691504Y659130D01*
X699770D01*
Y667396D01*
X697583Y666810D01*
X694003Y670391D01*
Y674747D01*
X694608Y674997D01*
X695273Y675174D01*
X697358Y673970D01*
X699784Y673320D01*
X702296D01*
X704722Y673970D01*
X706898Y675226D01*
X708674Y677002D01*
X709930Y679178D01*
X710580Y681604D01*
Y684116D01*
X709930Y686543D01*
X708674Y688718D01*
X706898Y690494D01*
X704722Y691750D01*
X702296Y692400D01*
X699784D01*
X697358Y691750D01*
X695273Y690546D01*
X694608Y690723D01*
X694003Y690974D01*
Y699746D01*
X694608Y699997D01*
X695273Y700174D01*
X697358Y698970D01*
X699784Y698320D01*
X702296D01*
X704722Y698970D01*
X706898Y700226D01*
X708674Y702002D01*
X709930Y704178D01*
X710580Y706604D01*
Y709116D01*
X709930Y711542D01*
X708674Y713718D01*
X706898Y715494D01*
X704722Y716750D01*
X702296Y717400D01*
X699784D01*
X697358Y716750D01*
X695273Y715546D01*
X694608Y715723D01*
X694003Y715974D01*
Y723320D01*
X710580D01*
Y742400D01*
X694003D01*
Y787750D01*
X709580D01*
Y804830D01*
X694003D01*
Y814854D01*
X695273Y815380D01*
X695796Y814856D01*
X697744Y813732D01*
X699916Y813150D01*
X702164D01*
X704336Y813732D01*
X706284Y814856D01*
X707874Y816446D01*
X708998Y818394D01*
X709580Y820566D01*
Y822814D01*
X708998Y824986D01*
X707874Y826934D01*
X706284Y828524D01*
X704336Y829648D01*
X702164Y830230D01*
X699916D01*
X697744Y829648D01*
X695796Y828524D01*
X695273Y828000D01*
X694003Y828526D01*
Y834559D01*
X698400Y838956D01*
X699770Y838589D01*
Y845820D01*
D02*
G37*
G36*
X999761Y923619D02*
X901954D01*
X900467Y923323D01*
X899207Y922481D01*
X781556Y804830D01*
X772489D01*
Y810175D01*
X775870Y813556D01*
X777386Y813150D01*
X779634D01*
X781806Y813732D01*
X783754Y814856D01*
X785344Y816446D01*
X786468Y818394D01*
X787050Y820566D01*
Y822814D01*
X786468Y824986D01*
X785344Y826934D01*
X783754Y828524D01*
X781806Y829648D01*
X779634Y830230D01*
X777386D01*
X775214Y829648D01*
X773266Y828524D01*
X771676Y826934D01*
X770552Y824986D01*
X769970Y822814D01*
Y820566D01*
X770376Y819050D01*
X765857Y814531D01*
X765015Y813271D01*
X764719Y811784D01*
Y786384D01*
X765015Y784897D01*
X765857Y783637D01*
X767117Y782795D01*
X768604Y782499D01*
X833120D01*
X834607Y782795D01*
X835867Y783637D01*
X846027Y793797D01*
X846869Y795057D01*
X847165Y796544D01*
Y829914D01*
X848435Y830323D01*
X850062Y828696D01*
X852408Y827341D01*
X855025Y826640D01*
X855110D01*
Y836930D01*
Y847220D01*
X855025D01*
X852408Y846519D01*
X850062Y845164D01*
X848435Y843537D01*
X847165Y843946D01*
Y850874D01*
X906766Y910475D01*
X949879D01*
X950365Y909302D01*
X950181Y909118D01*
X948826Y906772D01*
X948125Y904155D01*
Y901445D01*
X948826Y898828D01*
X950181Y896482D01*
X952097Y894566D01*
X954443Y893211D01*
X957060Y892510D01*
X959770D01*
X962387Y893211D01*
X964733Y894566D01*
X966649Y896482D01*
X968004Y898828D01*
X968705Y901445D01*
Y904155D01*
X968004Y906772D01*
X966649Y909118D01*
X966465Y909302D01*
X966951Y910475D01*
X973125D01*
Y898003D01*
X967533Y892412D01*
X966691Y891152D01*
X966395Y889665D01*
Y856423D01*
X965328Y854825D01*
X964920Y852774D01*
Y839467D01*
X965328Y837416D01*
X966112Y836243D01*
X965433Y834973D01*
X962310D01*
X961748Y836243D01*
X962532Y837416D01*
X962940Y839467D01*
Y844851D01*
X957580D01*
Y846121D01*
X956310D01*
Y857881D01*
X955529Y857726D01*
X953790Y856564D01*
X952628Y854825D01*
X952220Y852774D01*
Y849959D01*
X914885D01*
X908657Y856187D01*
X907396Y857029D01*
X905910Y857325D01*
X872890D01*
X871403Y857029D01*
X870143Y856187D01*
X860430Y846474D01*
X860352Y846519D01*
X857735Y847220D01*
X857650D01*
Y838200D01*
X866670D01*
Y838285D01*
X865968Y840902D01*
X865923Y840980D01*
X869917Y844973D01*
X871090Y844487D01*
Y826640D01*
X886176D01*
X936545Y776271D01*
X937805Y775429D01*
X939292Y775133D01*
X985520D01*
X987007Y775429D01*
X988267Y776271D01*
X998427Y786431D01*
X999269Y787691D01*
X999565Y789178D01*
Y789498D01*
X1000632Y791095D01*
X1001040Y793146D01*
Y806453D01*
X1000632Y808504D01*
X999470Y810243D01*
X997731Y811405D01*
X995680Y811813D01*
X993629Y811405D01*
X991890Y810243D01*
X990728Y808504D01*
X990320Y806453D01*
Y793146D01*
X990728Y791095D01*
X991279Y790270D01*
X983911Y782903D01*
X940901D01*
X891670Y832134D01*
Y847220D01*
X873823D01*
X873337Y848393D01*
X874499Y849555D01*
X904301D01*
X910529Y843327D01*
X911789Y842485D01*
X913276Y842189D01*
X952220D01*
Y839467D01*
X952628Y837416D01*
X953695Y835819D01*
Y833628D01*
X953991Y832141D01*
X954833Y830881D01*
X957373Y828341D01*
X958633Y827499D01*
X960120Y827203D01*
X1005247D01*
X1029683Y802767D01*
X1022143Y795227D01*
X1021301Y793967D01*
X1021005Y792480D01*
Y769620D01*
X979932D01*
Y749808D01*
X1023620D01*
Y759714D01*
X1026160D01*
Y749808D01*
X1028879D01*
Y717889D01*
X1025059Y714069D01*
X977392D01*
Y721106D01*
Y729234D01*
Y737108D01*
Y747268D01*
X957580D01*
Y746073D01*
X786638D01*
X785151Y745777D01*
X783891Y744935D01*
X782556Y743600D01*
X768970D01*
Y724520D01*
X786680D01*
X787206Y723250D01*
X781967Y718010D01*
X779766Y718600D01*
X777254D01*
X774828Y717950D01*
X772652Y716694D01*
X770876Y714918D01*
X769620Y712742D01*
X768970Y710316D01*
Y707804D01*
X769620Y705378D01*
X770876Y703202D01*
X772652Y701426D01*
X774828Y700170D01*
X777254Y699520D01*
X779766D01*
X782192Y700170D01*
X784368Y701426D01*
X786144Y703202D01*
X787400Y705378D01*
X788050Y707804D01*
Y710316D01*
X787460Y712516D01*
X805373Y730429D01*
X817843D01*
X818228Y729159D01*
X817889Y728933D01*
X781967Y693010D01*
X779766Y693600D01*
X777254D01*
X774828Y692950D01*
X772652Y691694D01*
X770876Y689918D01*
X769620Y687742D01*
X768970Y685316D01*
Y682804D01*
X769620Y680378D01*
X770876Y678202D01*
X772652Y676426D01*
X774828Y675170D01*
X777254Y674520D01*
X779766D01*
X782192Y675170D01*
X784368Y676426D01*
X786144Y678202D01*
X787400Y680378D01*
X788050Y682804D01*
Y685316D01*
X787460Y687517D01*
X822245Y722301D01*
X834589D01*
X834984Y721150D01*
X834988Y721031D01*
X781967Y668010D01*
X779766Y668600D01*
X777254D01*
X774828Y667950D01*
X772652Y666694D01*
X770876Y664918D01*
X769620Y662742D01*
X768970Y660316D01*
Y657804D01*
X769560Y655603D01*
X744327Y630371D01*
X719770D01*
X718283Y630075D01*
X717023Y629233D01*
X716181Y627972D01*
X716157Y627850D01*
X712230D01*
Y593165D01*
X701409D01*
X687310Y607264D01*
Y608040D01*
X681040D01*
Y590770D01*
X687310D01*
Y594617D01*
X688483Y595103D01*
X697053Y586533D01*
X698313Y585691D01*
X699800Y585395D01*
X739140D01*
X740627Y585691D01*
X741887Y586533D01*
X760529Y605175D01*
X769737D01*
X770876Y603202D01*
X772652Y601426D01*
X774828Y600170D01*
X777240Y599524D01*
Y609060D01*
Y618596D01*
X774828Y617950D01*
X772652Y616694D01*
X770876Y614918D01*
X769737Y612945D01*
X758920D01*
X757433Y612649D01*
X756173Y611807D01*
X737531Y593165D01*
X727310D01*
Y622601D01*
X745936D01*
X747423Y622897D01*
X748683Y623739D01*
X775053Y650110D01*
X777254Y649520D01*
X779766D01*
X782192Y650170D01*
X784368Y651426D01*
X786144Y653202D01*
X787400Y655378D01*
X788050Y657804D01*
Y660316D01*
X787460Y662516D01*
X839301Y714357D01*
X840305Y714241D01*
X840679Y713028D01*
X840533Y712931D01*
X828341Y700739D01*
X827499Y699479D01*
X827203Y697992D01*
Y623932D01*
X827499Y622446D01*
X828341Y621185D01*
X833060Y616467D01*
X832470Y614266D01*
Y611754D01*
X833120Y609328D01*
X834376Y607152D01*
X836152Y605376D01*
X838328Y604120D01*
X840754Y603470D01*
X843266D01*
X845692Y604120D01*
X847868Y605376D01*
X849644Y607152D01*
X850900Y609328D01*
X851550Y611754D01*
Y614266D01*
X850960Y616467D01*
X860275Y625781D01*
X891890D01*
Y611220D01*
X896545D01*
Y576230D01*
X890640D01*
Y561669D01*
X889254D01*
X887767Y561373D01*
X886507Y560531D01*
X885665Y559271D01*
X885369Y557784D01*
Y538480D01*
X885665Y536993D01*
X886507Y535733D01*
X899037Y523203D01*
X900297Y522361D01*
X901784Y522066D01*
X951300D01*
Y515660D01*
X969147D01*
X969633Y514487D01*
X961951Y506805D01*
X864701D01*
X845895Y525611D01*
Y579237D01*
X847868Y580376D01*
X849644Y582152D01*
X850900Y584328D01*
X851546Y586740D01*
X842010D01*
X832474D01*
X833120Y584328D01*
X834376Y582152D01*
X836152Y580376D01*
X838125Y579237D01*
Y524002D01*
X838421Y522515D01*
X839263Y521255D01*
X860345Y500173D01*
X861605Y499331D01*
X863092Y499035D01*
X963560D01*
X965046Y499331D01*
X966307Y500173D01*
X982540Y516407D01*
X982618Y516361D01*
X985235Y515660D01*
X985320D01*
Y525950D01*
Y536240D01*
X985235D01*
X982618Y535539D01*
X982540Y535494D01*
X967597Y550437D01*
X966337Y551279D01*
X964850Y551575D01*
X910220D01*
Y553899D01*
X931926D01*
X933413Y554195D01*
X934673Y555037D01*
X977186Y597550D01*
X977910Y597250D01*
Y597250D01*
X994990D01*
Y608836D01*
X997737Y611583D01*
X998910Y611097D01*
Y597250D01*
X1015990D01*
Y601905D01*
X1031750D01*
Y596000D01*
X1048830D01*
Y614605D01*
X1051750D01*
Y607060D01*
X1060290D01*
X1068830D01*
Y615580D01*
X1064027D01*
X1063879Y616327D01*
X1063037Y617587D01*
X1059387Y621237D01*
X1058668Y621717D01*
X1059053Y622987D01*
X1085511D01*
X1095935Y612563D01*
Y533283D01*
X1093962Y532144D01*
X1092186Y530368D01*
X1090930Y528192D01*
X1090280Y525766D01*
Y523254D01*
X1090930Y520828D01*
X1092186Y518652D01*
X1093962Y516876D01*
X1096138Y515620D01*
X1098564Y514970D01*
X1101076D01*
X1103502Y515620D01*
X1105678Y516876D01*
X1107454Y518652D01*
X1108710Y520828D01*
X1109360Y523254D01*
Y525766D01*
X1108710Y528192D01*
X1107454Y530368D01*
X1105678Y532144D01*
X1103705Y533283D01*
Y614172D01*
X1103409Y615659D01*
X1102567Y616919D01*
X1092592Y626894D01*
X1093078Y628067D01*
X1111019D01*
X1120936Y618151D01*
Y533283D01*
X1118962Y532144D01*
X1117186Y530368D01*
X1115930Y528192D01*
X1115280Y525766D01*
Y523254D01*
X1115930Y520828D01*
X1117186Y518652D01*
X1118962Y516876D01*
X1121138Y515620D01*
X1123564Y514970D01*
X1126076D01*
X1128503Y515620D01*
X1130678Y516876D01*
X1132454Y518652D01*
X1133710Y520828D01*
X1134360Y523254D01*
Y525766D01*
X1133710Y528192D01*
X1132454Y530368D01*
X1130678Y532144D01*
X1128705Y533283D01*
Y619760D01*
X1128409Y621247D01*
X1127567Y622507D01*
X1115375Y634699D01*
X1114115Y635541D01*
X1112628Y635837D01*
X1069848D01*
Y651469D01*
X1071021Y651955D01*
X1073959Y649017D01*
X1075219Y648175D01*
X1076706Y647879D01*
X1120309D01*
X1143179Y625009D01*
Y576834D01*
X1143475Y575347D01*
X1144317Y574087D01*
X1155493Y562911D01*
X1156753Y562069D01*
X1158240Y561773D01*
X1199642D01*
X1201129Y562069D01*
X1202389Y562911D01*
X1203231Y564171D01*
X1203527Y565658D01*
Y585724D01*
X1203231Y587211D01*
X1202389Y588471D01*
X1199087Y591773D01*
X1197827Y592615D01*
X1196340Y592911D01*
X1195313D01*
X1194882Y594181D01*
X1196354Y595652D01*
X1197610Y597828D01*
X1198260Y600254D01*
Y602766D01*
X1197670Y604967D01*
X1202389Y609685D01*
X1203231Y610946D01*
X1203527Y612432D01*
Y633222D01*
X1203231Y634709D01*
X1202389Y635969D01*
X1196547Y641811D01*
X1195287Y642653D01*
X1195073Y642695D01*
X1194832Y643271D01*
X1194755Y644054D01*
X1196354Y645652D01*
X1197610Y647828D01*
X1198260Y650254D01*
Y652766D01*
X1197610Y655192D01*
X1196354Y657368D01*
X1194578Y659144D01*
X1192402Y660400D01*
X1189976Y661050D01*
X1187464D01*
X1185263Y660460D01*
X1156669Y689055D01*
X1155409Y689897D01*
X1153922Y690193D01*
X1092200D01*
Y697230D01*
Y701040D01*
X1082294D01*
Y703580D01*
X1092200D01*
Y706299D01*
X1179491D01*
X1187497Y698293D01*
X1188757Y697451D01*
X1190244Y697155D01*
X1207516D01*
X1209003Y697451D01*
X1210263Y698293D01*
X1217121Y705151D01*
X1217963Y706411D01*
X1218259Y707898D01*
Y810006D01*
X1217963Y811493D01*
X1217121Y812753D01*
X1204474Y825400D01*
X1204880Y826916D01*
Y829164D01*
X1204298Y831336D01*
X1203174Y833284D01*
X1201584Y834874D01*
X1199636Y835998D01*
X1197464Y836580D01*
X1195216D01*
X1193044Y835998D01*
X1191096Y834874D01*
X1189506Y833284D01*
X1188382Y831336D01*
X1187800Y829164D01*
Y826916D01*
X1188382Y824744D01*
X1189506Y822796D01*
X1191096Y821206D01*
X1193044Y820082D01*
X1195216Y819500D01*
X1197464D01*
X1198980Y819906D01*
X1210489Y808397D01*
Y709507D01*
X1205907Y704925D01*
X1203262D01*
X1202921Y706195D01*
X1203928Y706776D01*
X1205844Y708692D01*
X1207199Y711038D01*
X1207900Y713655D01*
Y716365D01*
X1207199Y718982D01*
X1205844Y721328D01*
X1203928Y723244D01*
X1201582Y724599D01*
X1198965Y725300D01*
X1196255D01*
X1193638Y724599D01*
X1193560Y724554D01*
X1189567Y728547D01*
X1190053Y729720D01*
X1207900D01*
Y750300D01*
X1187320D01*
Y743895D01*
X1143739D01*
X1142699Y744935D01*
X1141439Y745777D01*
X1139952Y746073D01*
X1092200D01*
Y747268D01*
X1078271D01*
X1077785Y748441D01*
X1178899Y849555D01*
X1188722D01*
X1189506Y848196D01*
X1191096Y846606D01*
X1193044Y845482D01*
X1195070Y844939D01*
Y853440D01*
Y861941D01*
X1193044Y861398D01*
X1191096Y860274D01*
X1189506Y858684D01*
X1188722Y857325D01*
X1177290D01*
X1175803Y857029D01*
X1174543Y856187D01*
X1071021Y752665D01*
X1069848Y753151D01*
Y769620D01*
X1056427D01*
X1055941Y770793D01*
X1062059Y776911D01*
X1076960D01*
X1078447Y777207D01*
X1079707Y778049D01*
X1091137Y789479D01*
X1091979Y790739D01*
X1092275Y792226D01*
Y794120D01*
X1096930D01*
Y813700D01*
X1092275D01*
Y819150D01*
X1091979Y820637D01*
X1091137Y821897D01*
X1091005Y822029D01*
Y827280D01*
X1096910D01*
Y844360D01*
X1079829D01*
Y847280D01*
X1096910D01*
Y864360D01*
X1091005D01*
Y875707D01*
X1093477Y878179D01*
X1094319Y879439D01*
X1094614Y880926D01*
Y892510D01*
X1101020D01*
Y913090D01*
X1080440D01*
Y912368D01*
X1079170Y911842D01*
X1069547Y921465D01*
X1068287Y922307D01*
X1066800Y922603D01*
X1061212D01*
X1059725Y922307D01*
X1058465Y921465D01*
X1000738Y863738D01*
X999565Y864224D01*
Y880176D01*
X1002802Y883413D01*
X1003644Y884673D01*
X1003940Y886160D01*
Y919440D01*
X1003644Y920927D01*
X1002802Y922187D01*
X1002508Y922481D01*
X1001247Y923323D01*
X999761Y923619D01*
D02*
G37*
G36*
X866670Y835660D02*
X857650D01*
Y826640D01*
X857735D01*
X860352Y827341D01*
X862698Y828696D01*
X864614Y830612D01*
X865968Y832958D01*
X866670Y835575D01*
Y835660D01*
D02*
G37*
G36*
X1204880Y811180D02*
X1187800D01*
Y794100D01*
X1204880D01*
Y811180D01*
D02*
G37*
G36*
X982980Y811813D02*
X980929Y811405D01*
X979190Y810243D01*
X978028Y808504D01*
X977620Y806453D01*
Y793146D01*
X978028Y791095D01*
X979190Y789356D01*
X980929Y788194D01*
X982980Y787786D01*
X985031Y788194D01*
X986770Y789356D01*
X987932Y791095D01*
X988340Y793146D01*
Y806453D01*
X987932Y808504D01*
X986770Y810243D01*
X985031Y811405D01*
X982980Y811813D01*
D02*
G37*
G36*
X970280D02*
X968229Y811405D01*
X966490Y810243D01*
X965328Y808504D01*
X964920Y806453D01*
Y793146D01*
X965328Y791095D01*
X966490Y789356D01*
X968229Y788194D01*
X970280Y787786D01*
X972331Y788194D01*
X974070Y789356D01*
X975232Y791095D01*
X975640Y793146D01*
Y806453D01*
X975232Y808504D01*
X974070Y810243D01*
X972331Y811405D01*
X970280Y811813D01*
D02*
G37*
G36*
X957580D02*
X955529Y811405D01*
X953790Y810243D01*
X952628Y808504D01*
X952220Y806453D01*
Y793146D01*
X952628Y791095D01*
X953790Y789356D01*
X955529Y788194D01*
X957580Y787786D01*
X959631Y788194D01*
X961370Y789356D01*
X962532Y791095D01*
X962940Y793146D01*
Y806453D01*
X962532Y808504D01*
X961370Y810243D01*
X959631Y811405D01*
X957580Y811813D01*
D02*
G37*
G36*
X702310Y667396D02*
Y659130D01*
X710576D01*
X709930Y661542D01*
X708674Y663718D01*
X706898Y665494D01*
X704722Y666750D01*
X702310Y667396D01*
D02*
G37*
G36*
X710576Y656590D02*
X702310D01*
Y648324D01*
X704722Y648970D01*
X706898Y650226D01*
X708674Y652002D01*
X709930Y654178D01*
X710576Y656590D01*
D02*
G37*
G36*
X699770D02*
X691504D01*
X692090Y654403D01*
X677023Y639337D01*
X676181Y638077D01*
X675885Y636590D01*
Y627850D01*
X672230D01*
Y610580D01*
X679770D01*
X687310D01*
Y627850D01*
X683655D01*
Y634981D01*
X697583Y648910D01*
X699770Y648324D01*
Y656590D01*
D02*
G37*
G36*
X779780Y618596D02*
Y610330D01*
X788046D01*
X787400Y612742D01*
X786144Y614918D01*
X784368Y616694D01*
X782192Y617950D01*
X779780Y618596D01*
D02*
G37*
G36*
X788046Y607790D02*
X779780D01*
Y599524D01*
X782192Y600170D01*
X784368Y601426D01*
X786144Y603202D01*
X787400Y605378D01*
X788046Y607790D01*
D02*
G37*
G36*
X678500Y608040D02*
X672230D01*
Y590770D01*
X678500D01*
Y608040D01*
D02*
G37*
G36*
X843280Y597546D02*
Y589280D01*
X851546D01*
X850900Y591692D01*
X849644Y593868D01*
X847868Y595644D01*
X845692Y596900D01*
X843280Y597546D01*
D02*
G37*
G36*
X840740D02*
X838328Y596900D01*
X836152Y595644D01*
X834376Y593868D01*
X833120Y591692D01*
X832474Y589280D01*
X840740D01*
Y597546D01*
D02*
G37*
G36*
X987945Y536240D02*
X987860D01*
Y527220D01*
X996880D01*
Y527305D01*
X996179Y529922D01*
X994824Y532268D01*
X992908Y534184D01*
X990562Y535539D01*
X987945Y536240D01*
D02*
G37*
G36*
X779766Y643600D02*
X777254D01*
X774828Y642950D01*
X772652Y641694D01*
X770876Y639918D01*
X769620Y637743D01*
X768970Y635316D01*
Y632804D01*
X769620Y630378D01*
X770876Y628203D01*
X772652Y626426D01*
X774828Y625170D01*
X777254Y624520D01*
X779766D01*
X781967Y625110D01*
X789705Y617371D01*
Y545730D01*
X785050D01*
Y526150D01*
X802130D01*
Y545730D01*
X797475D01*
Y618980D01*
X797179Y620467D01*
X796337Y621727D01*
X787460Y630604D01*
X788050Y632804D01*
Y635316D01*
X787400Y637743D01*
X786144Y639918D01*
X784368Y641694D01*
X782192Y642950D01*
X779766Y643600D01*
D02*
G37*
G36*
X727310Y559850D02*
X712230D01*
Y522770D01*
X727310D01*
Y532055D01*
X765050D01*
Y526150D01*
X782130D01*
Y545730D01*
X765050D01*
Y539825D01*
X727310D01*
Y559850D01*
D02*
G37*
G36*
X1076090Y534046D02*
Y525780D01*
X1084356D01*
X1083710Y528192D01*
X1082454Y530368D01*
X1080677Y532144D01*
X1078502Y533400D01*
X1076090Y534046D01*
D02*
G37*
G36*
X1068830Y604520D02*
X1060290D01*
X1051750D01*
Y596000D01*
X1056405D01*
Y539040D01*
X1056701Y537553D01*
X1057543Y536293D01*
X1058516Y535320D01*
X1057990Y534050D01*
X1040280D01*
Y514970D01*
X1059360D01*
Y532680D01*
X1060630Y533206D01*
X1065870Y527967D01*
X1065284Y525780D01*
X1073550D01*
Y534046D01*
X1071363Y533460D01*
X1064175Y540649D01*
Y596000D01*
X1068830D01*
Y604520D01*
D02*
G37*
G36*
X687310Y559850D02*
X672230D01*
Y522770D01*
X687310D01*
Y559850D01*
D02*
G37*
G36*
X996880Y524680D02*
X987860D01*
Y515660D01*
X987945D01*
X990562Y516361D01*
X992908Y517716D01*
X994824Y519632D01*
X996179Y521978D01*
X996880Y524595D01*
Y524680D01*
D02*
G37*
G36*
X1084356Y523240D02*
X1076090D01*
Y514974D01*
X1078502Y515620D01*
X1080677Y516876D01*
X1082454Y518652D01*
X1083710Y520828D01*
X1084356Y523240D01*
D02*
G37*
G36*
X1073550D02*
X1065284D01*
X1065930Y520828D01*
X1067186Y518652D01*
X1068962Y516876D01*
X1071137Y515620D01*
X1073550Y514974D01*
Y523240D01*
D02*
G37*
G36*
X1216728Y502920D02*
X1214052D01*
X1211468Y502228D01*
X1209152Y500890D01*
X1207260Y498998D01*
X1205922Y496682D01*
X1205230Y494098D01*
Y491422D01*
X1205922Y488838D01*
X1207260Y486522D01*
X1209152Y484630D01*
X1211468Y483292D01*
X1214052Y482600D01*
X1216728D01*
X1219312Y483292D01*
X1221628Y484630D01*
X1223520Y486522D01*
X1224858Y488838D01*
X1225550Y491422D01*
Y494098D01*
X1224858Y496682D01*
X1223520Y498998D01*
X1221628Y500890D01*
X1219312Y502228D01*
X1216728Y502920D01*
D02*
G37*
G36*
X669358D02*
X666682D01*
X664098Y502228D01*
X661782Y500890D01*
X659890Y498998D01*
X658552Y496682D01*
X657860Y494098D01*
Y491422D01*
X658552Y488838D01*
X659890Y486522D01*
X661782Y484630D01*
X664098Y483292D01*
X666682Y482600D01*
X669358D01*
X671942Y483292D01*
X674258Y484630D01*
X676150Y486522D01*
X677488Y488838D01*
X678180Y491422D01*
Y494098D01*
X677488Y496682D01*
X676150Y498998D01*
X674258Y500890D01*
X671942Y502228D01*
X669358Y502920D01*
D02*
G37*
%LPD*%
G36*
X1055990Y906206D02*
X1055440Y904155D01*
Y904070D01*
X1065730D01*
Y901530D01*
X1055440D01*
Y901445D01*
X1056141Y898828D01*
X1057496Y896482D01*
X1059412Y894566D01*
X1061758Y893211D01*
X1061845Y893188D01*
Y854576D01*
X1062141Y853089D01*
X1062983Y851829D01*
X1064505Y850307D01*
Y813700D01*
X1059850D01*
Y807795D01*
X1035643D01*
X1009603Y833835D01*
X1008343Y834677D01*
X1006856Y834973D01*
X1000937D01*
Y852949D01*
X1054851Y906863D01*
X1055990Y906206D01*
D02*
G37*
G36*
X957580Y705104D02*
Y703580D01*
X967486D01*
Y701040D01*
X957580D01*
Y697230D01*
Y689356D01*
Y682319D01*
X857434D01*
X855947Y682023D01*
X854687Y681181D01*
X846056Y672550D01*
X834973D01*
Y696383D01*
X844889Y706299D01*
X957580D01*
Y705104D01*
D02*
G37*
G36*
X1072388Y682319D02*
X1071372D01*
X1069885Y682023D01*
X1068625Y681181D01*
X1060751Y673307D01*
X1059909Y672047D01*
X1059613Y670560D01*
Y664972D01*
X1059909Y663485D01*
X1060751Y662225D01*
X1066991Y655985D01*
X1066505Y654812D01*
X1034034D01*
Y644906D01*
X1031494D01*
Y654812D01*
X1028775D01*
Y681397D01*
X1037929Y690551D01*
X1072388D01*
Y682319D01*
D02*
G37*
G36*
X901700Y539150D02*
X910220D01*
Y543805D01*
X963241D01*
X969633Y537413D01*
X969147Y536240D01*
X951300D01*
Y529835D01*
X903393D01*
X895251Y537977D01*
X895737Y539150D01*
X899160D01*
Y547690D01*
X901700D01*
Y539150D01*
D02*
G37*
D14*
X679770Y609310D02*
D03*
Y541310D02*
D03*
X719770Y609310D02*
D03*
Y541310D02*
D03*
D15*
X793590Y535940D02*
D03*
X773590D02*
D03*
X1060290Y605790D02*
D03*
X1040290D02*
D03*
X1088390Y803910D02*
D03*
X1068390D02*
D03*
D16*
X900430Y640760D02*
D03*
Y619760D02*
D03*
X1196340Y802640D02*
D03*
X778510Y796290D02*
D03*
X701040D02*
D03*
D17*
X986450Y605790D02*
D03*
X1007450D02*
D03*
D18*
X967486Y742188D02*
D03*
Y734314D02*
D03*
Y726186D02*
D03*
Y718312D02*
D03*
Y710184D02*
D03*
Y702310D02*
D03*
Y694436D02*
D03*
Y686308D02*
D03*
Y678434D02*
D03*
Y670306D02*
D03*
Y662432D02*
D03*
X1082294D02*
D03*
Y670306D02*
D03*
Y678434D02*
D03*
Y686308D02*
D03*
Y694436D02*
D03*
Y702310D02*
D03*
Y710184D02*
D03*
Y718312D02*
D03*
Y726186D02*
D03*
Y734314D02*
D03*
Y742188D02*
D03*
D19*
X985012Y644906D02*
D03*
X992886D02*
D03*
X1001014D02*
D03*
X1008888D02*
D03*
X1017016D02*
D03*
X1024890D02*
D03*
X1032764D02*
D03*
X1040892D02*
D03*
X1048766D02*
D03*
X1056894D02*
D03*
X1064768D02*
D03*
Y759714D02*
D03*
X1056894D02*
D03*
X1048766D02*
D03*
X1040892D02*
D03*
X1032764D02*
D03*
X1024890D02*
D03*
X1017016D02*
D03*
X1008888D02*
D03*
X1001014D02*
D03*
X992886D02*
D03*
X985012D02*
D03*
D20*
X1087120Y855820D02*
D03*
Y835820D02*
D03*
X900430Y547690D02*
D03*
Y567690D02*
D03*
D21*
X995680Y799799D02*
D03*
X982980D02*
D03*
X970280D02*
D03*
X957580D02*
D03*
Y846121D02*
D03*
X970280D02*
D03*
X982980D02*
D03*
D22*
X995680D02*
D03*
D27*
X701040Y657860D02*
D03*
Y682860D02*
D03*
Y707860D02*
D03*
X842010Y588010D02*
D03*
Y613010D02*
D03*
Y638010D02*
D03*
X1124820Y524510D02*
D03*
X1099820D02*
D03*
X1074820D02*
D03*
X1188720Y651510D02*
D03*
Y626510D02*
D03*
Y601510D02*
D03*
X778510Y609060D02*
D03*
Y634060D02*
D03*
Y659060D02*
D03*
Y684060D02*
D03*
Y709060D02*
D03*
D28*
X701040Y732860D02*
D03*
X842010Y663010D02*
D03*
X1188720Y576510D02*
D03*
X778510Y734060D02*
D03*
D29*
X986590Y525950D02*
D03*
X1197610Y715010D02*
D03*
X1065730Y902800D02*
D03*
X958415D02*
D03*
X856380Y836930D02*
D03*
D30*
X961590Y525950D02*
D03*
X1090730Y902800D02*
D03*
X983415D02*
D03*
X881380Y836930D02*
D03*
D31*
X1049820Y524510D02*
D03*
D32*
X1197610Y740010D02*
D03*
D33*
X1196340Y853440D02*
D03*
Y828040D02*
D03*
X778510Y847090D02*
D03*
Y821690D02*
D03*
X701040Y847090D02*
D03*
Y821690D02*
D03*
D35*
X995680Y853186D02*
Y881785D01*
X1026160Y702310D02*
X1082294D01*
X1024890D02*
X1026160D01*
X1034034Y803910D02*
X1036320D01*
X913276Y846074D02*
X957580D01*
Y833628D02*
Y846074D01*
X719770Y626486D02*
X745936D01*
X793590Y535940D02*
Y618980D01*
X778510Y634060D02*
X793590Y618980D01*
X842010Y613010D02*
X858666Y629666D01*
X962574D01*
X986450Y605790D01*
X1010580Y629920D01*
X1019810D01*
X1024890Y635000D01*
Y644906D01*
X979932Y605790D02*
X986450D01*
X931926Y557784D02*
X979932Y605790D01*
X889254Y557784D02*
X931926D01*
X889254Y538480D02*
Y557784D01*
Y538480D02*
X901784Y525950D01*
X961590D01*
X1026160Y702310D02*
X1177290Y853440D01*
X1196340D01*
X1060290Y539040D02*
Y605790D01*
Y539040D02*
X1074820Y524510D01*
X758920Y609060D02*
X778510D01*
X739140Y589280D02*
X758920Y609060D01*
X699800Y589280D02*
X739140D01*
X679770Y609310D02*
X699800Y589280D01*
X679770Y609310D02*
Y636590D01*
X701040Y657860D01*
X725140Y535940D02*
X773590D01*
X719770Y541310D02*
X725140Y535940D01*
X982980Y846121D02*
Y879245D01*
X994975Y891240D01*
Y914360D01*
X905157D02*
X994975D01*
X843280Y852483D02*
X905157Y914360D01*
X843280Y796544D02*
Y852483D01*
X833120Y786384D02*
X843280Y796544D01*
X768604Y786384D02*
X833120D01*
X768604D02*
Y811784D01*
X778510Y821690D01*
X1071372Y678434D02*
X1082294D01*
X1063498Y670560D02*
X1071372Y678434D01*
X1063498Y664972D02*
Y670560D01*
Y664972D02*
X1076706Y651764D01*
X1121918D01*
X1147064Y626618D01*
Y576834D02*
Y626618D01*
Y576834D02*
X1158240Y565658D01*
X1199642D01*
Y585724D01*
X1196340Y589026D02*
X1199642Y585724D01*
X1183132Y589026D02*
X1196340D01*
X1177798Y594360D02*
X1183132Y589026D01*
X1177798Y594360D02*
Y615588D01*
X1188720Y626510D01*
X745936Y626486D02*
X778510Y659060D01*
X719770Y609310D02*
Y626486D01*
X995680Y881785D02*
X1000055Y886160D01*
Y919440D01*
X999761Y919734D02*
X1000055Y919440D01*
X901954Y919734D02*
X999761D01*
X778510Y796290D02*
X901954Y919734D01*
X970280Y846121D02*
Y889665D01*
X983415Y902800D01*
X842010Y524002D02*
Y588010D01*
Y524002D02*
X863092Y502920D01*
X963560D01*
X986590Y525950D01*
X1142130Y740010D02*
X1197610D01*
X1139952Y742188D02*
X1142130Y740010D01*
X1082294Y742188D02*
X1139952D01*
X967486Y710184D02*
X1026668D01*
X1032764Y716280D01*
Y759714D01*
X1040892D02*
Y768858D01*
X1064260Y792226D01*
X1075436D01*
X1078230Y795020D01*
Y823722D01*
X1075944Y826008D02*
X1078230Y823722D01*
X1075944Y826008D02*
Y885952D01*
X1077468Y887476D01*
Y908050D01*
X1066800Y918718D02*
X1077468Y908050D01*
X1061212Y918718D02*
X1066800D01*
X995680Y853186D02*
X1061212Y918718D01*
X995680Y846121D02*
Y853186D01*
X1088390Y792226D02*
Y803910D01*
X1076960Y780796D02*
X1088390Y792226D01*
X1060450Y780796D02*
X1076960D01*
X1048766Y769112D02*
X1060450Y780796D01*
X1048766Y759714D02*
Y769112D01*
X820636Y726186D02*
X967486D01*
X778510Y684060D02*
X820636Y726186D01*
X837762Y718312D02*
X967486D01*
X778510Y659060D02*
X837762Y718312D01*
X1188720Y601510D02*
X1199642Y612432D01*
Y633222D01*
X1193800Y639064D02*
X1199642Y633222D01*
X1173734Y639064D02*
X1193800D01*
X1162558Y650240D02*
X1173734Y639064D01*
X1162558Y650240D02*
Y655828D01*
X1148080Y670306D02*
X1162558Y655828D01*
X1082294Y670306D02*
X1148080D01*
X1082294Y686308D02*
X1153922D01*
X1188720Y651510D01*
X1082294Y734314D02*
X1178306D01*
X1197610Y715010D01*
X1082294Y710184D02*
X1181100D01*
X1190244Y701040D01*
X1207516D01*
X1214374Y707898D01*
Y810006D01*
X1196340Y828040D02*
X1214374Y810006D01*
X803764Y734314D02*
X967486D01*
X778510Y709060D02*
X803764Y734314D01*
X690118Y836168D02*
X701040Y847090D01*
X690118Y668782D02*
Y836168D01*
Y668782D02*
X701040Y657860D01*
X1024890Y759714D02*
Y792480D01*
X1036320Y803910D01*
X1068390D01*
X1024890Y644906D02*
Y683006D01*
X1036320Y694436D01*
X1082294D01*
X831088Y623932D02*
X842010Y613010D01*
X831088Y623932D02*
Y697992D01*
X843280Y710184D01*
X967486D01*
X786638Y742188D02*
X967486D01*
X778510Y734060D02*
X786638Y742188D01*
X1124820Y524510D02*
Y619760D01*
X1112628Y631952D02*
X1124820Y619760D01*
X1051560Y631952D02*
X1112628D01*
X1048766Y634746D02*
X1051560Y631952D01*
X1048766Y634746D02*
Y644906D01*
X1099820Y524510D02*
Y614172D01*
X1087120Y626872D02*
X1099820Y614172D01*
X1043178Y626872D02*
X1087120D01*
X1040892Y629158D02*
X1043178Y626872D01*
X1040892Y629158D02*
Y644906D01*
X1082294Y662432D02*
X1141984D01*
X1154176Y650240D01*
Y595122D02*
Y650240D01*
Y595122D02*
X1172788Y576510D01*
X1188720D01*
X1060290Y605790D02*
Y614840D01*
X1056640Y618490D02*
X1060290Y614840D01*
X1044194Y618490D02*
X1056640D01*
X1032764Y629920D02*
X1044194Y618490D01*
X1032764Y629920D02*
Y644906D01*
X957580Y833628D02*
X960120Y831088D01*
X1006856D01*
X1034034Y803910D01*
X995680Y789178D02*
Y799799D01*
X985520Y779018D02*
X995680Y789178D01*
X939292Y779018D02*
X985520D01*
X881380Y836930D02*
X939292Y779018D01*
X922102Y662432D02*
X967486D01*
X900430Y640760D02*
X922102Y662432D01*
X874306Y670306D02*
X967486D01*
X842010Y638010D02*
X874306Y670306D01*
X900430Y547690D02*
X964850D01*
X986590Y525950D01*
X857434Y678434D02*
X967486D01*
X842010Y663010D02*
X857434Y678434D01*
X957580Y846074D02*
Y846121D01*
X905910Y853440D02*
X913276Y846074D01*
X872890Y853440D02*
X905910D01*
X856380Y836930D02*
X872890Y853440D01*
X1090730Y880926D02*
Y902800D01*
X1087120Y877316D02*
X1090730Y880926D01*
X1087120Y855820D02*
Y877316D01*
X1065730Y854576D02*
Y902800D01*
Y854576D02*
X1068390Y851916D01*
Y803910D02*
Y851916D01*
X967486Y702310D02*
X1024890D01*
X900430Y567690D02*
Y619760D01*
X1007450Y605790D02*
X1040290D01*
X1087120Y820420D02*
Y835820D01*
Y820420D02*
X1088390Y819150D01*
Y803910D02*
Y819150D01*
D36*
X668020Y942340D02*
D03*
Y492760D02*
D03*
X1215390Y942340D02*
D03*
Y492760D02*
D03*
M02*
