G04*
G04 #@! TF.GenerationSoftware,Altium Limited,Altium Designer,23.1.1 (15)*
G04*
G04 Layer_Color=8421504*
%FSLAX44Y44*%
%MOMM*%
G71*
G04*
G04 #@! TF.SameCoordinates,A958324D-6691-4423-B282-4C8B23E47DD7*
G04*
G04*
G04 #@! TF.FilePolarity,Positive*
G04*
G01*
G75*
%ADD14R,1.0000X3.2000*%
%ADD15R,1.2000X1.4500*%
%ADD16R,1.2000X1.2000*%
%ADD17R,1.2000X1.2000*%
%ADD18R,1.4732X0.5080*%
%ADD19R,0.5080X1.4732*%
%ADD20R,1.4500X1.2000*%
G04:AMPARAMS|DCode=21|XSize=1.8741mm|YSize=0.5434mm|CornerRadius=0.2717mm|HoleSize=0mm|Usage=FLASHONLY|Rotation=270.000|XOffset=0mm|YOffset=0mm|HoleType=Round|Shape=RoundedRectangle|*
%AMROUNDEDRECTD21*
21,1,1.8741,0.0000,0,0,270.0*
21,1,1.3307,0.5434,0,0,270.0*
1,1,0.5434,0.0000,-0.6653*
1,1,0.5434,0.0000,0.6653*
1,1,0.5434,0.0000,0.6653*
1,1,0.5434,0.0000,-0.6653*
%
%ADD21ROUNDEDRECTD21*%
%ADD22R,0.5434X1.8741*%
D14*
X679770Y609310D02*
D03*
Y541310D02*
D03*
X719770Y609310D02*
D03*
Y541310D02*
D03*
D15*
X793590Y535940D02*
D03*
X773590D02*
D03*
X1060290Y605790D02*
D03*
X1040290D02*
D03*
X1088390Y803910D02*
D03*
X1068390D02*
D03*
D16*
X900430Y640760D02*
D03*
Y619760D02*
D03*
D17*
X986450Y605790D02*
D03*
X1007450D02*
D03*
D18*
X967486Y742188D02*
D03*
Y734314D02*
D03*
Y726186D02*
D03*
Y718312D02*
D03*
Y710184D02*
D03*
Y702310D02*
D03*
Y694436D02*
D03*
Y686308D02*
D03*
Y678434D02*
D03*
Y670306D02*
D03*
Y662432D02*
D03*
X1082294D02*
D03*
Y670306D02*
D03*
Y678434D02*
D03*
Y686308D02*
D03*
Y694436D02*
D03*
Y702310D02*
D03*
Y710184D02*
D03*
Y718312D02*
D03*
Y726186D02*
D03*
Y734314D02*
D03*
Y742188D02*
D03*
D19*
X985012Y644906D02*
D03*
X992886D02*
D03*
X1001014D02*
D03*
X1008888D02*
D03*
X1017016D02*
D03*
X1024890D02*
D03*
X1032764D02*
D03*
X1040892D02*
D03*
X1048766D02*
D03*
X1056894D02*
D03*
X1064768D02*
D03*
Y759714D02*
D03*
X1056894D02*
D03*
X1048766D02*
D03*
X1040892D02*
D03*
X1032764D02*
D03*
X1024890D02*
D03*
X1017016D02*
D03*
X1008888D02*
D03*
X1001014D02*
D03*
X992886D02*
D03*
X985012D02*
D03*
D20*
X1087120Y855820D02*
D03*
Y835820D02*
D03*
X900430Y547690D02*
D03*
Y567690D02*
D03*
D21*
X995680Y799799D02*
D03*
X982980D02*
D03*
X970280D02*
D03*
X957580D02*
D03*
Y846121D02*
D03*
X970280D02*
D03*
X982980D02*
D03*
D22*
X995680D02*
D03*
M02*
