G04*
G04 #@! TF.GenerationSoftware,Altium Limited,Altium Designer,23.1.1 (15)*
G04*
G04 Layer_Color=128*
%FSLAX44Y44*%
%MOMM*%
G71*
G04*
G04 #@! TF.SameCoordinates,A958324D-6691-4423-B282-4C8B23E47DD7*
G04*
G04*
G04 #@! TF.FilePolarity,Positive*
G04*
G01*
G75*
%ADD40C,0.1270*%
D40*
X696540Y657860D02*
X705540D01*
X701040Y653360D02*
Y662360D01*
X696540Y682860D02*
X705540D01*
X701040Y678360D02*
Y687360D01*
X696540Y707860D02*
X705540D01*
X701040Y703360D02*
Y712360D01*
X696540Y732860D02*
X705540D01*
X701040Y728360D02*
Y737360D01*
X837510Y588010D02*
X846510D01*
X842010Y583510D02*
Y592510D01*
X837510Y613010D02*
X846510D01*
X842010Y608510D02*
Y617510D01*
X837510Y638010D02*
X846510D01*
X842010Y633510D02*
Y642510D01*
X837510Y663010D02*
X846510D01*
X842010Y658510D02*
Y667510D01*
X981590Y525950D02*
X991590D01*
X986590Y520950D02*
Y530950D01*
X956590Y525950D02*
X966590D01*
X961590Y520950D02*
Y530950D01*
X1120320Y524510D02*
X1129320D01*
X1124820Y520010D02*
Y529010D01*
X1095320Y524510D02*
X1104320D01*
X1099820Y520010D02*
Y529010D01*
X1070320Y524510D02*
X1079320D01*
X1074820Y520010D02*
Y529010D01*
X1045320Y524510D02*
X1054320D01*
X1049820Y520010D02*
Y529010D01*
X1184220Y651510D02*
X1193220D01*
X1188720Y647010D02*
Y656010D01*
X1184220Y626510D02*
X1193220D01*
X1188720Y622010D02*
Y631010D01*
X1184220Y601510D02*
X1193220D01*
X1188720Y597010D02*
Y606010D01*
X1184220Y576510D02*
X1193220D01*
X1188720Y572010D02*
Y581010D01*
X1192610Y715010D02*
X1202610D01*
X1197610Y710010D02*
Y720010D01*
X1192610Y740010D02*
X1202610D01*
X1197610Y735010D02*
Y745010D01*
X1192840Y853440D02*
X1199840D01*
X1196340Y849940D02*
Y856940D01*
X1192840Y828040D02*
X1199840D01*
X1196340Y824540D02*
Y831540D01*
X1192840Y802640D02*
X1199840D01*
X1196340Y799140D02*
Y806140D01*
X1060730Y902800D02*
X1070730D01*
X1065730Y897800D02*
Y907800D01*
X1085730Y902800D02*
X1095730D01*
X1090730Y897800D02*
Y907800D01*
X953415Y902800D02*
X963415D01*
X958415Y897800D02*
Y907800D01*
X978415Y902800D02*
X988415D01*
X983415Y897800D02*
Y907800D01*
X851380Y836930D02*
X861380D01*
X856380Y831930D02*
Y841930D01*
X876380Y836930D02*
X886380D01*
X881380Y831930D02*
Y841930D01*
X775010Y847090D02*
X782010D01*
X778510Y843590D02*
Y850590D01*
X775010Y821690D02*
X782010D01*
X778510Y818190D02*
Y825190D01*
X775010Y796290D02*
X782010D01*
X778510Y792790D02*
Y799790D01*
X697540Y847090D02*
X704540D01*
X701040Y843590D02*
Y850590D01*
X697540Y821690D02*
X704540D01*
X701040Y818190D02*
Y825190D01*
X697540Y796290D02*
X704540D01*
X701040Y792790D02*
Y799790D01*
X774010Y609060D02*
X783010D01*
X778510Y604560D02*
Y613560D01*
X774010Y634060D02*
X783010D01*
X778510Y629560D02*
Y638560D01*
X774010Y659060D02*
X783010D01*
X778510Y654560D02*
Y663560D01*
X774010Y684060D02*
X783010D01*
X778510Y679560D02*
Y688560D01*
X774010Y709060D02*
X783010D01*
X778510Y704560D02*
Y713560D01*
X774010Y734060D02*
X783010D01*
X778510Y729560D02*
Y738560D01*
X662940Y942340D02*
X673100D01*
X668020Y937260D02*
Y947420D01*
X662940Y492760D02*
X673100D01*
X668020Y487680D02*
Y497840D01*
X1210310Y942340D02*
X1220470D01*
X1215390Y937260D02*
Y947420D01*
X1210310Y492760D02*
X1220470D01*
X1215390Y487680D02*
Y497840D01*
M02*
