G04*
G04 #@! TF.GenerationSoftware,Altium Limited,Altium Designer,23.1.1 (15)*
G04*
G04 Layer_Color=32768*
%FSLAX44Y44*%
%MOMM*%
G71*
G04*
G04 #@! TF.SameCoordinates,A958324D-6691-4423-B282-4C8B23E47DD7*
G04*
G04*
G04 #@! TF.FilePolarity,Positive*
G04*
G01*
G75*
%ADD11C,0.2000*%
%ADD37C,0.1000*%
%ADD39C,0.0500*%
D11*
X667770Y626310D02*
X731770D01*
X667770Y524310D02*
Y626310D01*
Y524310D02*
X731770D01*
Y626310D01*
X668040Y631860D02*
X734040D01*
Y758860D01*
X668040D02*
X734040D01*
X668040Y631860D02*
Y758860D01*
X809010Y562010D02*
X875010D01*
Y689010D01*
X809010D02*
X875010D01*
X809010Y562010D02*
Y689010D01*
X892680Y612760D02*
X908180D01*
Y647760D01*
X892680D02*
X908180D01*
X892680Y612760D02*
Y647760D01*
X1014450Y598040D02*
Y613540D01*
X979450D02*
X1014450D01*
X979450Y598040D02*
Y613540D01*
Y598040D02*
X1014450D01*
X936090Y490950D02*
Y550450D01*
Y490950D02*
X1012090D01*
Y550450D01*
X936090D02*
X1012090D01*
X1150820Y491510D02*
Y557510D01*
X1023820D02*
X1150820D01*
X1023820Y491510D02*
Y557510D01*
Y491510D02*
X1150820D01*
X1155720Y677510D02*
X1221720D01*
X1155720Y550510D02*
Y677510D01*
Y550510D02*
X1221720D01*
Y677510D01*
X1162610Y765510D02*
X1222110D01*
X1162610Y689510D02*
Y765510D01*
Y689510D02*
X1222110D01*
Y765510D01*
X1170490Y877940D02*
X1222090D01*
X1170490Y778140D02*
Y877940D01*
Y778140D02*
X1222090D01*
Y877940D01*
X1116230Y878300D02*
Y937800D01*
X1040230D02*
X1116230D01*
X1040230Y878300D02*
Y937800D01*
Y878300D02*
X1116230D01*
X951130Y856491D02*
X1002130D01*
X951130Y789429D02*
Y856491D01*
Y789429D02*
X1002130D01*
Y856491D01*
X1008915Y878300D02*
Y937800D01*
X932915D02*
X1008915D01*
X932915Y878300D02*
Y937800D01*
Y878300D02*
X1008915D01*
X906880Y812430D02*
Y871930D01*
X830880D02*
X906880D01*
X830880Y812430D02*
Y871930D01*
Y812430D02*
X906880D01*
X752660Y871590D02*
X804260D01*
X752660Y771790D02*
Y871590D01*
Y771790D02*
X804260D01*
Y871590D01*
X675190D02*
X726790D01*
X675190Y771790D02*
Y871590D01*
Y771790D02*
X726790D01*
Y871590D01*
X755510Y760060D02*
X795510D01*
X755510Y583060D02*
Y760060D01*
Y583060D02*
X795510D01*
Y760060D01*
D37*
X783590Y530940D02*
Y540940D01*
X778590Y535940D02*
X788590D01*
X1050290Y600790D02*
Y610790D01*
X1045290Y605790D02*
X1055290D01*
X1078390Y798910D02*
Y808910D01*
X1073390Y803910D02*
X1083390D01*
X1082120Y845820D02*
X1092120D01*
X1087120Y840820D02*
Y850820D01*
X895430Y557690D02*
X905430D01*
X900430Y552690D02*
Y562690D01*
D39*
X762590Y523440D02*
X804590D01*
X762590Y548440D02*
X804590D01*
Y523440D02*
Y548440D01*
X762590Y523440D02*
Y548440D01*
X1029290Y593290D02*
X1071290D01*
X1029290Y618290D02*
X1071290D01*
Y593290D02*
Y618290D01*
X1029290Y593290D02*
Y618290D01*
X1057390Y791410D02*
X1099390D01*
X1057390Y816410D02*
X1099390D01*
Y791410D02*
Y816410D01*
X1057390Y791410D02*
Y816410D01*
X1099620Y824820D02*
Y866820D01*
X1074620Y824820D02*
Y866820D01*
X1099620D01*
X1074620Y824820D02*
X1099620D01*
X887930Y536690D02*
Y578690D01*
X912930Y536690D02*
Y578690D01*
X887930Y536690D02*
X912930D01*
X887930Y578690D02*
X912930D01*
M02*
