G04*
G04 #@! TF.GenerationSoftware,Altium Limited,Altium Designer,23.1.1 (15)*
G04*
G04 Layer_Color=0*
%FSLAX44Y44*%
%MOMM*%
G71*
G04*
G04 #@! TF.SameCoordinates,A958324D-6691-4423-B282-4C8B23E47DD7*
G04*
G04*
G04 #@! TF.FilePolarity,Positive*
G04*
G01*
G75*
%ADD37C,0.1000*%
D37*
X694770Y575310D02*
X704770D01*
X699770Y570310D02*
Y580310D01*
X696040Y695360D02*
X706040D01*
X701040Y690360D02*
Y700360D01*
X837010Y625510D02*
X847010D01*
X842010Y620510D02*
Y630510D01*
X895430Y630260D02*
X905430D01*
X900430Y625260D02*
Y635260D01*
X996950Y600790D02*
Y610790D01*
X991950Y605790D02*
X1001950D01*
X974090Y515700D02*
Y525700D01*
X969090Y520700D02*
X979090D01*
X1087320Y519510D02*
Y529510D01*
X1082320Y524510D02*
X1092320D01*
X1183720Y614010D02*
X1193720D01*
X1188720Y609010D02*
Y619010D01*
X1187360Y727510D02*
X1197360D01*
X1192360Y722510D02*
Y732510D01*
X1191290Y828040D02*
X1201290D01*
X1196290Y823040D02*
Y833040D01*
X1078230Y903050D02*
Y913050D01*
X1073230Y908050D02*
X1083230D01*
X971630Y822960D02*
X981630D01*
X976630Y817960D02*
Y827960D01*
X970915Y903050D02*
Y913050D01*
X965915Y908050D02*
X975915D01*
X868880Y837180D02*
Y847180D01*
X863880Y842180D02*
X873880D01*
X773460Y821690D02*
X783460D01*
X778460Y816690D02*
Y826690D01*
X695990Y821690D02*
X705990D01*
X700990Y816690D02*
Y826690D01*
X770510Y671560D02*
X780510D01*
X775510Y666560D02*
Y676560D01*
M02*
