G04*
G04 #@! TF.GenerationSoftware,Altium Limited,Altium Designer,23.1.1 (15)*
G04*
G04 Layer_Color=8388736*
%FSLAX44Y44*%
%MOMM*%
G71*
G04*
G04 #@! TF.SameCoordinates,A958324D-6691-4423-B282-4C8B23E47DD7*
G04*
G04*
G04 #@! TF.FilePolarity,Negative*
G04*
G01*
G75*
%ADD14R,1.0000X3.2000*%
%ADD16R,1.2000X1.2000*%
%ADD17R,1.2000X1.2000*%
G04:AMPARAMS|DCode=21|XSize=1.8741mm|YSize=0.5434mm|CornerRadius=0.2717mm|HoleSize=0mm|Usage=FLASHONLY|Rotation=270.000|XOffset=0mm|YOffset=0mm|HoleType=Round|Shape=RoundedRectangle|*
%AMROUNDEDRECTD21*
21,1,1.8741,0.0000,0,0,270.0*
21,1,1.3307,0.5434,0,0,270.0*
1,1,0.5434,0.0000,-0.6653*
1,1,0.5434,0.0000,0.6653*
1,1,0.5434,0.0000,0.6653*
1,1,0.5434,0.0000,-0.6653*
%
%ADD21ROUNDEDRECTD21*%
%ADD22R,0.5434X1.8741*%
%ADD23R,1.4032X1.6532*%
%ADD24R,1.6764X0.7112*%
%ADD25R,0.7112X1.6764*%
%ADD26R,1.6532X1.4032*%
%ADD27C,1.4000*%
%ADD28R,1.4000X1.4000*%
%ADD29C,1.5500*%
%ADD30R,1.5500X1.5500*%
%ADD31R,1.4000X1.4000*%
%ADD32R,1.5500X1.5500*%
%ADD33C,1.2000*%
%ADD34C,1.7272*%
D14*
X679770Y609310D02*
D03*
Y541310D02*
D03*
X719770Y609310D02*
D03*
Y541310D02*
D03*
D16*
X900430Y640760D02*
D03*
Y619760D02*
D03*
X1196340Y802640D02*
D03*
X778510Y796290D02*
D03*
X701040D02*
D03*
D17*
X986450Y605790D02*
D03*
X1007450D02*
D03*
D21*
X995680Y799799D02*
D03*
X982980D02*
D03*
X970280D02*
D03*
X957580D02*
D03*
Y846121D02*
D03*
X970280D02*
D03*
X982980D02*
D03*
D22*
X995680D02*
D03*
D23*
X793590Y535940D02*
D03*
X773590D02*
D03*
X1060290Y605790D02*
D03*
X1040290D02*
D03*
X1088390Y803910D02*
D03*
X1068390D02*
D03*
D24*
X967486Y742188D02*
D03*
Y734314D02*
D03*
Y726186D02*
D03*
Y718312D02*
D03*
Y710184D02*
D03*
Y702310D02*
D03*
Y694436D02*
D03*
Y686308D02*
D03*
Y678434D02*
D03*
Y670306D02*
D03*
Y662432D02*
D03*
X1082294D02*
D03*
Y670306D02*
D03*
Y678434D02*
D03*
Y686308D02*
D03*
Y694436D02*
D03*
Y702310D02*
D03*
Y710184D02*
D03*
Y718312D02*
D03*
Y726186D02*
D03*
Y734314D02*
D03*
Y742188D02*
D03*
D25*
X985012Y644906D02*
D03*
X992886D02*
D03*
X1001014D02*
D03*
X1008888D02*
D03*
X1017016D02*
D03*
X1024890D02*
D03*
X1032764D02*
D03*
X1040892D02*
D03*
X1048766D02*
D03*
X1056894D02*
D03*
X1064768D02*
D03*
Y759714D02*
D03*
X1056894D02*
D03*
X1048766D02*
D03*
X1040892D02*
D03*
X1032764D02*
D03*
X1024890D02*
D03*
X1017016D02*
D03*
X1008888D02*
D03*
X1001014D02*
D03*
X992886D02*
D03*
X985012D02*
D03*
D26*
X1087120Y855820D02*
D03*
Y835820D02*
D03*
X900430Y547690D02*
D03*
Y567690D02*
D03*
D27*
X701040Y657860D02*
D03*
Y682860D02*
D03*
Y707860D02*
D03*
X842010Y588010D02*
D03*
Y613010D02*
D03*
Y638010D02*
D03*
X1124820Y524510D02*
D03*
X1099820D02*
D03*
X1074820D02*
D03*
X1188720Y651510D02*
D03*
Y626510D02*
D03*
Y601510D02*
D03*
X778510Y609060D02*
D03*
Y634060D02*
D03*
Y659060D02*
D03*
Y684060D02*
D03*
Y709060D02*
D03*
D28*
X701040Y732860D02*
D03*
X842010Y663010D02*
D03*
X1188720Y576510D02*
D03*
X778510Y734060D02*
D03*
D29*
X986590Y525950D02*
D03*
X1197610Y715010D02*
D03*
X1065730Y902800D02*
D03*
X958415D02*
D03*
X856380Y836930D02*
D03*
D30*
X961590Y525950D02*
D03*
X1090730Y902800D02*
D03*
X983415D02*
D03*
X881380Y836930D02*
D03*
D31*
X1049820Y524510D02*
D03*
D32*
X1197610Y740010D02*
D03*
D33*
X1196340Y853440D02*
D03*
Y828040D02*
D03*
X778510Y847090D02*
D03*
Y821690D02*
D03*
X701040Y847090D02*
D03*
Y821690D02*
D03*
D34*
X668020Y942340D02*
D03*
Y492760D02*
D03*
X1215390Y942340D02*
D03*
Y492760D02*
D03*
M02*
